<svg width="18" height="19" viewBox="0 0 18 19" fill="none" xmlns="http://www.w3.org/2000/svg">
<path fill-rule="evenodd" clip-rule="evenodd" d="M7.9886 0.904962C8.26498 0.652621 8.62572 0.512695 9 0.512695C9.37428 0.512695 9.73502 0.652621 10.0114 0.904961C10.0118 0.905297 10.0121 0.905633 10.0125 0.905969L17.5107 7.71991L17.5212 7.72969C17.6694 7.86967 17.7881 8.03789 17.8703 8.22444C17.9526 8.41099 17.9966 8.61211 17.9999 8.81595L18 8.82808V17.5C18 17.8978 17.842 18.2793 17.5607 18.5606C17.2794 18.8419 16.8978 19 16.5 19H12C11.6022 19 11.2206 18.8419 10.9393 18.5606C10.658 18.2793 10.5 17.8978 10.5 17.5V13H7.5V17.5C7.5 17.8978 7.34196 18.2793 7.06066 18.5606C6.77936 18.8419 6.39782 19 6 19H1.5C1.10218 19 0.720645 18.8419 0.43934 18.5606C0.158035 18.2793 0 17.8978 0 17.5V8.82808L9.81241e-05 8.81595C0.00339599 8.61211 0.0474467 8.41099 0.129657 8.22444C0.211867 8.03789 0.330574 7.86967 0.478788 7.72969L0.489349 7.71991L7.9875 0.905969C7.98787 0.905633 7.98823 0.905297 7.9886 0.904962ZM1.50711 8.82187L8.99815 2.01438L9 2.0127L9.00185 2.01438L16.4929 8.82187C16.4949 8.82408 16.4965 8.8266 16.4977 8.82933C16.499 8.83217 16.4997 8.83519 16.5 8.83828V17.5H12V13C12 12.6021 11.842 12.2206 11.5607 11.9393C11.2794 11.658 10.8978 11.5 10.5 11.5H7.5C7.10218 11.5 6.72065 11.658 6.43934 11.9393C6.15804 12.2206 6 12.6021 6 13V17.5H1.5V8.83828C1.50026 8.83519 1.50103 8.83217 1.50229 8.82933C1.50349 8.8266 1.50512 8.82408 1.50711 8.82187Z" fill="#9F9BA1"/>
</svg>
